<svg width="2400" height="297" viewBox="0 0 2400 297" fill="none" xmlns="http://www.w3.org/2000/svg">
<g clip-path="url(#clip0_1_2)">
<rect width="2400" height="297" fill="white"/>
<g clip-path="url(#clip1_1_2)">
<rect width="2400" height="298" fill="#FFB3B3"/>
<circle cx="201" cy="247" r="31" fill="white" fill-opacity="0.4"/>
<circle cx="340" cy="199" r="22" fill="white" fill-opacity="0.4"/>
<circle cx="266.5" cy="223.5" r="15.5" fill="white" fill-opacity="0.4"/>
<circle cx="210.5" cy="198.5" r="9.5" fill="white" fill-opacity="0.4"/>
<circle cx="402.5" cy="273.5" r="9.5" fill="white" fill-opacity="0.4"/>
<circle cx="263.5" cy="268.5" r="9.5" fill="white" fill-opacity="0.4"/>
<circle cx="291.5" cy="190.5" r="9.5" fill="white" fill-opacity="0.4"/>
<circle cx="359" cy="245" r="12" fill="white" fill-opacity="0.4"/>
<circle cx="257" cy="155" r="13" fill="white" fill-opacity="0.4"/>
<circle cx="300" cy="260" r="18" fill="white" fill-opacity="0.4"/>
<circle cx="205" cy="166" r="18" fill="white" fill-opacity="0.4"/>
<circle cx="239" cy="278" r="5" fill="white" fill-opacity="0.4"/>
<circle cx="300" cy="221" r="5" fill="white" fill-opacity="0.4"/>
<circle cx="393" cy="205" r="5" fill="white" fill-opacity="0.4"/>
<circle cx="441" cy="244" r="5" fill="white" fill-opacity="0.4"/>
<circle cx="249" cy="189" r="5" fill="white" fill-opacity="0.4"/>
<circle cx="178" cy="179" r="5" fill="white" fill-opacity="0.4"/>
<circle cx="2322" cy="168" r="217" fill="white" fill-opacity="0.4"/>
</g>
</g>
<defs>
<clipPath id="clip0_1_2">
<rect width="2400" height="297" fill="white"/>
</clipPath>
<clipPath id="clip1_1_2">
<rect width="2400" height="298" fill="white"/>
</clipPath>
</defs>
</svg>
